<svg id="shopping-cart-line" xmlns="http://www.w3.org/2000/svg" width="30.564" height="29.371" viewBox="0 0 30.564 29.371">
  <path id="Trazado_54828" data-name="Trazado 54828" d="M11.08,29.558A2.057,2.057,0,1,0,13.137,27.5a2.057,2.057,0,0,0-2.057,2.058Z" transform="translate(6.884 -2.244)" fill="#4e4e4e"/>
  <path id="Trazado_54829" data-name="Trazado 54829" d="M24.75,29.558A2.057,2.057,0,1,0,26.807,27.5,2.057,2.057,0,0,0,24.75,29.558Z" transform="translate(-21.028 -2.244)" fill="#4e4e4e"/>
  <path id="Trazado_54830" data-name="Trazado 54830" d="M2.94,5.425a.99.99,0,0,1,.769-.377h23.56L26.62,7.087H5.016L7.681,19.322H22.654L27.216,4.568a1.009,1.009,0,0,1,.659-.663l4.093-1.285A1,1,0,0,1,33.22,3.3a1.028,1.028,0,0,1-.664,1.28L28.972,5.7,24.391,20.484l1.637,1.366.13.133a2.757,2.757,0,0,1,.08,3.456,2.72,2.72,0,0,1-2.256,1.02H7.322a1.02,1.02,0,0,1,0-2.039H24.141a.667.667,0,0,0,.561-.349.7.7,0,0,0,0-.671l-2.406-2.039H6.883a1,1,0,0,1-1-.8L2.721,6.291a1.035,1.035,0,0,1,.22-.867Z" transform="translate(-2.7 -2.575)" fill="#4e4e4e"/>
</svg>
