<svg xmlns="http://www.w3.org/2000/svg" width="25.5" height="29.75" viewBox="0 0 25.5 29.75">
  <path id="user-o" d="M19.938,13.016a7.182,7.182,0,0,1,1.486.631A6.528,6.528,0,0,1,22.9,14.859a7.812,7.812,0,0,1,1.32,1.917,12.033,12.033,0,0,1,.913,2.855,19.3,19.3,0,0,1,.365,3.926,6.26,6.26,0,0,1-1.66,4.375,5.227,5.227,0,0,1-4,1.818H5.661a5.228,5.228,0,0,1-4-1.818A6.256,6.256,0,0,1,0,23.558a19.3,19.3,0,0,1,.365-3.926,12.05,12.05,0,0,1,.913-2.855A7.807,7.807,0,0,1,2.6,14.859a6.528,6.528,0,0,1,1.478-1.212,7.182,7.182,0,0,1,1.486-.631A8.421,8.421,0,0,1,4.923,5.2,8.408,8.408,0,0,1,9.455.673a8.409,8.409,0,0,1,6.591,0A8.416,8.416,0,0,1,20.578,5.2a8.425,8.425,0,0,1-.64,7.811ZM12.75,2.125A6.142,6.142,0,0,0,8.243,3.992,6.146,6.146,0,0,0,6.375,8.5a6.136,6.136,0,0,0,1.868,4.507,6.149,6.149,0,0,0,4.508,1.868,6.138,6.138,0,0,0,4.507-1.868A6.144,6.144,0,0,0,19.125,8.5a6.144,6.144,0,0,0-1.868-4.507A6.14,6.14,0,0,0,12.75,2.125Zm7.089,25.5a3.206,3.206,0,0,0,2.5-1.187,4.228,4.228,0,0,0,1.038-2.88,12.7,12.7,0,0,0-1.3-6.259,4.354,4.354,0,0,0-3.744-2.407A8.211,8.211,0,0,1,12.75,17a8.211,8.211,0,0,1-5.578-2.108A4.356,4.356,0,0,0,3.429,17.3a12.7,12.7,0,0,0-1.3,6.259,4.223,4.223,0,0,0,1.038,2.88,3.21,3.21,0,0,0,2.5,1.188H19.838Z" fill="#4e4e4e"/>
</svg>
